<?xml version="1.0" encoding="utf-8"?>
<svg width="14" height="14" viewBox="0 0 24 24" xmlns="http://www.w3.org/2000/svg">
  <path fill="#181717" d="M12 0.297c-6.626 0-12 5.373-12 12 0 5.303 3.438 9.8 8.205 11.387.6.113.82-.258.82-.577 0-.285-.01-1.04-.015-2.04-3.338.726-4.042-1.612-4.042-1.612-.546-1.385-1.333-1.754-1.333-1.754-1.09-.744.083-.729.083-.729 1.205.084 1.838 1.236 1.838 1.236 1.07 1.835 2.807 1.304 3.492.997.108-.776.418-1.305.76-1.605-2.665-.304-5.467-1.333-5.467-5.931 0-1.31.468-2.381 1.235-3.22-.123-.303-.535-1.524.117-3.176 0 0 1.008-.322 3.3 1.23a11.5 11.5 0 013.003-.404c1.018.005 2.044.137 3.003.404 2.29-1.552 3.297-1.23 3.297-1.23.653 1.653.241 2.874.118 3.176.77.839 1.233 1.91 1.233 3.22 0 4.609-2.807 5.624-5.479 5.921.43.372.823 1.103.823 2.222 0 1.606-.014 2.899-.014 3.293 0 .321.218.694.825.577C20.565 22.093 24 17.594 24 12.297c0-6.627-5.373-12-12-12"/>
</svg>
